PathFileType	4	(X/Y/Z)	C:\Users\Basilio\Documents\Thesis Gigler\squatting_fais\c3dfiles\019\SLS_front_pre2\markers_experimental.trc
DataRate	CameraRate	NumFrames	NumMarkers	Units	OrigDataRate	OrigDataStartFrame	OrigNumFrames
200.000000	200.000000	4	59	mm	200.000000	0	1677
Frame#	Time	FHD			LBHD			RBHD			C7			T10			CLAV			LSHO			LUUPA			LMUPA			LDUPA			LLEP			LMEP			LRAD			LUL			LRFIN			RSHO			RUPA1			RMUPA			RDUPA			RLEP			RMEP			RRAD			RUL			RUFIN			LASI			RASI			USACR			LSACR			RSACR			LTHI1			LTHI2			LTHI3			LTHI4			LLFC			LTIB1			LTIB2			LTIB3			LTIB4			LLMAL			LMMAL			LHEE			LMT1			LMT2			LMT5			RTHI2			RTHI3			RTHI4			RLFC			RTIB1			RTIB2			RTIB3			RTIB4			RLMAL			RMMAL			RHEE			RMT1			RMT2			RMT5			RTHI			
		X1	Y1	Z1	X2	Y2	Z2	X3	Y3	Z3	X4	Y4	Z4	X5	Y5	Z5	X6	Y6	Z6	X7	Y7	Z7	X8	Y8	Z8	X9	Y9	Z9	X10	Y10	Z10	X11	Y11	Z11	X12	Y12	Z12	X13	Y13	Z13	X14	Y14	Z14	X15	Y15	Z15	X16	Y16	Z16	X17	Y17	Z17	X18	Y18	Z18	X19	Y19	Z19	X20	Y20	Z20	X21	Y21	Z21	X22	Y22	Z22	X23	Y23	Z23	X24	Y24	Z24	X25	Y25	Z25	X26	Y26	Z26	X27	Y27	Z27	X28	Y28	Z28	X29	Y29	Z29	X30	Y30	Z30	X31	Y31	Z31	X32	Y32	Z32	X33	Y33	Z33	X34	Y34	Z34	X35	Y35	Z35	X36	Y36	Z36	X37	Y37	Z37	X38	Y38	Z38	X39	Y39	Z39	X40	Y40	Z40	X41	Y41	Z41	X42	Y42	Z42	X43	Y43	Z43	X44	Y44	Z44	X45	Y45	Z45	X46	Y46	Z46	X47	Y47	Z47	X48	Y48	Z48	X49	Y49	Z49	X50	Y50	Z50	X51	Y51	Z51	X52	Y52	Z52	X53	Y53	Z53	X54	Y54	Z54	X55	Y55	Z55	X56	Y56	Z56	X57	Y57	Z57	X58	Y58	Z58	X59	Y59	Z59	

1	0	-195.711654663086	1694.995849609375	-724.6186523437501	-330.4024963378907	1694.542602539063	-865.9156494140627	-333.2429199218751	1685.380981445313	-726.1163940429689	-397.9388122558595	1515.147583007813	-789.4560546875002	-439.351287841797	1215.6298828125	-787.1269531250002	-270.5810241699219	1451.441650390625	-802.7297363281252	-342.3110046386719	1494.756225585938	-955.3814086914065	-351.5871887207032	1322.569946289063	-1016.000183105469	-320.2640686035157	1293.9970703125	-991.3291625976565	-350.2491760253907	1255.864379882813	-1027.226684570313	-389.1175231933595	1178.657104492188	-1033.928100585938	-411.7010192871095	1164.2529296875	-977.2564086914065	-265.7702026367188	951.7437133789065	-1029.098510742188	-327.1647338867188	946.5974121093752	-1056.954833984375	-244.2593383789063	884.173278808594	-1055.10498046875	-315.1087951660157	1484.022094726563	-649.9141235351564	-371.4451599121094	1305.09814453125	-553.8572387695314	-331.5196228027344	1284.406860351563	-565.2219848632814	-364.9242553710938	1238.623046875	-545.1585083007814	-357.9025268554688	1164.56787109375	-540.1799926757814	-397.3965454101564	1156.537353515625	-583.3911132812501	-229.5146789550782	948.4783325195315	-575.7481079101564	-270.9372558593751	934.0502929687502	-523.6408691406251	-195.9352264404297	879.1445922851565	-548.7248535156251	-278.0800476074219	1014.833068847656	-920.7503662109377	-253.0229797363282	1008.757202148438	-708.6480712890626	-429.7724914550782	1081.34228515625	-791.892272949219	-436.6677856445314	1048.7451171875	-819.7530517578127	-428.7514953613282	1049.468505859375	-762.4035034179689	-349.4638061523438	761.8935546875001	-1002.228698730469	-312.7568054199219	684.3839111328126	-1007.110595703125	-266.9661865234376	688.9564208984376	-992.9727172851565	-339.4478149414063	630.2292480468751	-996.9785766601565	-342.5414428710938	533.5472412109376	-989.4719848632815	-302.6060485839844	390.3591308593751	-969.3401489257815	-359.5776672363282	354.9387817382813	-1026.185302734375	-323.3463745117188	347.4156188964844	-1003.211059570313	-330.1932983398438	264.8093872070313	-975.8382568359377	-404.4547119140626	143.335922241211	-1007.536682128906	-388.2184448242189	143.9183959960938	-931.480895996094	-478.4040527343751	117.3194732666016	-962.9829101562502	-263.8369750976563	61.42102432250978	-947.350524902344	-265.2507324218751	62.62256622314455	-988.645202636719	-312.8798828125001	50.59849929809572	-1041.883911132813	-253.1896667480469	756.5131835937501	-646.6403198242189	-229.1889343261719	763.3529052734376	-669.5434570312501	-279.6565551757813	680.2338867187501	-642.6909790039064	-321.7401123046876	518.6584472656251	-670.4052734375001	-293.6123046875001	336.8536987304688	-731.0025024414064	-346.5592956542969	258.2535095214844	-671.9684448242189	-315.5700378417969	255.5625762939454	-707.2150268554689	-328.9651794433594	214.7225341796876	-747.7291870117189	-390.9966125488282	132.9220581054688	-702.0698852539064	-377.2472839355469	137.4973907470703	-776.5743408203127	-456.9238891601564	107.9215087890625	-749.3385620117189	-257.6861877441407	55.10396575927736	-775.758972167969	-249.6108703613282	53.87053298950197	-733.9276733398439	-292.7710571289063	50.9485321044922	-675.1550903320314	nan	nan	nan	
2	0.005	-196.4599151611329	1695.576904296875	-724.6317138671876	-331.3392639160157	1694.464721679688	-865.9805297851565	-334.1723022460938	1685.949340820313	-726.0519409179689	-398.1868591308595	1515.079467773438	-789.4620361328127	-439.368865966797	1215.5791015625	-787.1621093750002	-270.7344360351563	1451.587890625	-802.7327270507815	-342.3563232421876	1494.757690429688	-955.3492431640627	-351.4215087890626	1322.553100585938	-1015.957580566406	-320.0368041992188	1293.989624023438	-991.2359008789065	-350.0446777343751	1255.841918945313	-1027.200073242188	-389.0710449218751	1178.684204101563	-1033.911254882813	-411.4868469238282	1164.200805664063	-977.321472167969	-265.3307800292969	951.7791748046877	-1028.872680664063	-326.6823120117188	946.6045532226565	-1056.88720703125	-243.7201385498047	884.1921997070315	-1054.830078125	-315.1506042480469	1484.010131835938	-649.9183959960939	-370.1520996093751	1307.335083007813	-553.2908325195314	-330.7417602539063	1282.698364257813	-564.4926757812501	-364.7956542968751	1238.734497070313	-545.0723876953126	-357.8257751464844	1164.499267578125	-540.0534057617189	-397.2252502441407	1156.535278320313	-583.2239990234376	-229.0811767578126	948.753112792969	-575.7479858398439	-270.3883361816407	934.2019653320315	-523.6018066406251	-195.1354675292969	879.5924072265627	-548.5947875976564	-278.3377075195313	1014.56494140625	-920.4489746093752	-252.9199676513672	1008.742126464844	-708.5665893554689	-429.680633544922	1081.278076171875	-791.8674316406252	-436.6409606933595	1048.698486328125	-819.7068481445315	-428.7140502929689	1049.404541015625	-762.4267578125001	-349.4224243164063	761.8875122070314	-1002.166748046875	-312.7569580078126	684.3755493164064	-1007.061584472656	-266.9593505859376	688.9125976562501	-992.9531250000002	-339.4485168457032	630.2299194335939	-996.9787597656252	-342.5524597167969	533.5291137695314	-989.4317626953127	-302.6785888671876	390.347381591797	-969.3338623046877	-359.6020202636719	354.9453735351563	-1026.135375976563	-323.4126892089844	347.3663940429688	-1003.228759765625	-330.1921386718751	264.8085632324219	-975.8382568359377	-404.4468383789064	143.3028869628907	-1007.555419921875	-388.2091064453126	143.9248962402344	-931.4678344726565	-478.4468383789064	117.3525085449219	-962.9890747070315	-263.8544006347657	61.44409561157228	-947.3401489257815	-265.3267211914063	62.57057189941408	-988.6876220703127	-312.8988342285157	50.622859954834	-1041.874267578125	-253.0837860107422	756.5646362304689	-646.6490478515626	-229.1485290527344	763.3482055664064	-669.5967407226564	-279.6368103027344	680.2173461914064	-642.6961059570314	-321.7282104492188	518.6889038085939	-670.4060668945314	-293.6325683593751	336.8241577148438	-731.0083618164064	-346.4821472167969	258.2286071777344	-671.9052734375001	-315.5357055664063	255.5503540039063	-707.2175903320314	-329.0249938964844	214.6956024169922	-747.6956176757814	-390.946746826172	132.8600006103516	-702.0775756835939	-377.2713012695313	137.4693603515625	-776.6010742187502	-457.0519104003907	107.9451751708985	-749.3123779296876	-257.6873168945313	55.11307525634767	-775.757263183594	-249.628158569336	53.86113739013673	-734.0135498046876	-292.7817382812501	50.97540664672853	-675.1691894531251	nan	nan	nan	
3	0.01	-197.3325347900391	1696.176147460938	-724.7006835937501	-331.9558105468751	1694.348999023438	-865.9714355468752	-334.9268188476563	1685.87890625	-726.0914916992189	-398.3470458984376	1514.958374023438	-789.4512329101565	-439.2239074707032	1215.5087890625	-787.0989990234377	-270.7646789550782	1451.743286132813	-802.6501464843752	-342.4067687988282	1494.722900390625	-955.3206176757815	-351.3156127929688	1322.510131835938	-1015.923828125	-319.9196777343751	1294.020751953125	-991.203308105469	-349.8307495117188	1255.813598632813	-1027.153930664063	-388.4439697265626	1178.501098632813	-1033.941284179688	-411.282196044922	1164.0927734375	-977.3726196289065	-264.8624877929688	951.8010864257815	-1028.65234375	-326.2109375000001	946.579284667969	-1056.815185546875	-243.1362915039063	884.189392089844	-1054.535888671875	-315.2192993164063	1484.101196289063	-649.8385620117189	-371.3264465332032	1305.222534179688	-553.6545410156251	-331.3648986816407	1284.554077148438	-565.0044555664064	-364.7098388671876	1238.767333984375	-544.9185180664064	-357.5317687988282	1164.724853515625	-539.8696899414064	-397.0393676757814	1156.526123046875	-583.0939941406251	-228.7061157226563	949.0041503906252	-575.7365112304689	-269.7633666992188	934.3988037109377	-523.5585327148439	-194.3686676025391	879.9477539062502	-548.6029052734376	-278.2260131835938	1014.579345703125	-920.3630981445315	-252.884506225586	1008.7509765625	-708.4498901367189	-429.586883544922	1081.203491210938	-791.8432617187502	-436.588104248047	1048.644409179688	-819.7235107421877	-428.5846557617189	1049.368408203125	-762.3942871093751	-349.3691711425782	761.8745117187501	-1002.091857910156	-312.7717285156251	684.3550415039064	-1007.049987792969	-266.9371032714844	688.8920898437501	-992.980895996094	-339.4597167968751	630.1987304687501	-996.9274902343752	-342.5287170410157	533.5389404296876	-989.367614746094	-302.6567687988282	390.3782653808595	-969.320007324219	-359.6378173828126	354.9722290039063	-1026.113525390625	-323.3923645019532	347.4038696289063	-1003.126403808594	-330.1934509277344	264.7700500488282	-975.8486938476565	-404.4844360351564	143.3196105957032	-1007.497314453125	-388.2430419921876	143.9268341064453	-931.4436035156252	-478.4372863769532	117.3530883789063	-963.008483886719	-263.7807006835938	61.38270187377931	-947.3702392578127	-265.2164306640626	62.62447738647462	-988.6013793945315	-312.9480285644532	50.62558364868165	-1041.885375976563	-253.0477905273438	756.5410156250001	-646.5903930664064	-229.0099334716797	763.3837280273439	-669.5438232421876	-279.5799865722657	680.2155761718751	-642.6708374023439	-321.7432556152344	518.7963256835939	-670.3723754882814	-293.7064819335938	336.8481750488282	-731.0079956054689	-346.4827880859376	258.2290344238282	-671.9035644531251	-315.5923767089844	255.5963134765626	-707.1840820312501	-329.0782775878907	214.7262878417969	-747.7530517578126	-390.9270629882814	132.8878173828125	-702.0401000976564	-377.2989807128907	137.4788360595703	-776.5657958984377	-456.9984436035157	107.9380874633789	-749.3405151367189	-257.7293090820313	55.07622146606447	-775.7803344726565	-249.6160430908204	53.90429687500001	-733.8276367187501	-292.7684631347657	50.94581985473634	-675.1681518554689	-292.6946716308594	809.2519531250002	-634.4606323242189	
4	0.015	-198.0648345947266	1696.620727539063	-724.8836669921876	-332.6324768066407	1694.214477539063	-866.0227050781252	-335.6882019042969	1685.831909179688	-726.0813598632814	-398.4800720214845	1514.91015625	-789.4448852539065	-439.3356018066407	1215.43701171875	-787.1209716796877	-270.7737426757813	1451.822021484375	-802.6544189453127	-342.5154113769532	1494.709716796875	-955.3201293945315	-351.1829223632813	1322.488037109375	-1015.902465820313	-319.7174682617188	1294.02197265625	-991.1043090820315	-349.5897827148438	1255.808715820313	-1027.076293945313	-388.1770019531251	1178.445922851563	-1033.987670898438	-411.0682067871095	1164.040649414063	-977.4379882812502	-264.6005554199219	952.0254516601565	-1028.429077148438	-325.7274780273438	946.527526855469	-1056.685913085938	-242.6542053222657	884.2470703125002	-1054.25390625	-315.3417053222657	1484.191284179688	-649.8186035156251	-371.2621765136719	1305.335571289063	-553.5270385742189	-331.3472290039063	1284.675537109375	-564.9706420898439	-364.9390563964844	1238.599487304688	-544.8585205078126	-357.3621215820313	1164.657836914063	-539.7550659179689	-396.8739624023439	1156.524169921875	-582.8833618164064	-228.3230743408204	949.2874755859377	-575.7668457031251	-269.1919250488282	934.6124267578127	-523.5366821289064	-193.616439819336	880.366149902344	-548.5961303710939	-278.3786926269532	1014.376525878906	-920.196228027344	-252.860824584961	1008.800537109375	-708.3669433593751	-429.565643310547	1081.2080078125	-791.810729980469	-436.2399291992189	1048.536987304688	-819.7031250000002	-428.5126342773439	1049.35107421875	-762.3715209960939	-349.3613281250001	761.8706054687501	-1002.003662109375	-312.7726745605469	684.3469848632814	-1007.012451171875	-266.9353637695313	688.8896484375001	-992.9814453125002	-339.4920654296876	630.2005615234376	-996.9028320312502	-342.6052246093751	533.5360107421876	-989.3277587890627	-302.6688842773438	390.3656616210939	-969.3011474609377	-359.6447753906251	354.9759521484376	-1026.068725585938	-323.4576416015626	347.3538818359376	-1003.144287109375	-330.1664123535157	264.8394165039063	-975.8298339843752	-404.498748779297	143.3092803955078	-1007.492370605469	-388.2471008300782	143.8805084228516	-931.4360351562502	-478.4468383789064	117.3525085449219	-962.9890747070315	-263.7600097656251	61.35676574707033	-947.372497558594	-265.3267211914063	62.57057189941408	-988.6876220703127	-312.8955993652344	50.64254379272462	-1041.86669921875	-252.9428253173829	756.5582275390626	-646.6000976562501	-229.0451354980469	763.3413085937501	-669.5411987304689	-279.5517272949219	680.2434082031251	-642.6201782226564	-321.7782592773438	518.7726440429689	-670.3034667968751	-293.7092285156251	336.8681945800782	-730.9497070312501	-346.5078430175782	258.2012939453126	-671.9035034179689	-315.5997314453126	255.5723419189454	-707.2387084960939	-329.0758056640626	214.7267456054688	-747.7703247070314	-390.9258422851564	132.8521881103516	-702.0335083007814	-377.3991088867188	137.5342102050782	-776.675720214844	-457.0054321289064	107.8457565307617	-749.3361206054689	-257.7266235351563	55.07608795166017	-775.7791748046877	-249.6589355468751	53.86563110351564	-734.0088500976564	-292.7814331054688	50.97505950927736	-675.1691284179689	-292.3663635253907	809.422302246094	-634.9579467773439	
